<svg aria-hidden="true" style="position: absolute; width: 0; height: 0; overflow: hidden;" version="1.1"
    xmlns="http://www.w3.org/2000/svg"
    xmlns:xlink="http://www.w3.org/1999/xlink">
    <defs>
        <symbol id="icon-heart" viewBox="0 0 32 32">
            <path stroke-linejoin="round" stroke-linecap="round" stroke-miterlimit="4" stroke-width="3.2" d="M3.709 5.309c-0.669 0.669-1.199 1.462-1.561 2.336s-0.548 1.81-0.548 2.755c0 0.946 0.186 1.882 0.548 2.755s0.892 1.667 1.561 2.336l12.291 12.291 12.291-12.291c1.35-1.35 2.109-3.182 2.109-5.091s-0.759-3.741-2.109-5.091c-1.35-1.35-3.182-2.109-5.091-2.109s-3.741 0.759-5.091 2.109l-2.109 2.109-2.109-2.109c-0.669-0.669-1.462-1.199-2.336-1.561s-1.81-0.548-2.755-0.548c-0.946 0-1.882 0.186-2.755 0.548s-1.667 0.892-2.336 1.561v0z"></path>
        </symbol>
        <symbol id="icon-stars" viewBox="0 0 32 32">
            <path d="M7.999 3.2c0.424 0 0.831 0.169 1.131 0.469s0.469 0.707 0.469 1.131v1.6h1.6c0.424 0 0.831 0.169 1.131 0.469s0.469 0.707 0.469 1.131c0 0.424-0.169 0.831-0.469 1.131s-0.707 0.469-1.131 0.469h-1.6v1.6c0 0.424-0.169 0.831-0.469 1.131s-0.707 0.469-1.131 0.469c-0.424 0-0.831-0.169-1.131-0.469s-0.469-0.707-0.469-1.131v-1.6h-1.6c-0.424 0-0.831-0.169-1.131-0.469s-0.469-0.707-0.469-1.131c0-0.424 0.169-0.831 0.469-1.131s0.707-0.469 1.131-0.469h1.6v-1.6c0-0.424 0.169-0.831 0.469-1.131s0.707-0.469 1.131-0.469zM7.999 19.2c0.424 0 0.831 0.169 1.131 0.469s0.469 0.707 0.469 1.131v1.6h1.6c0.424 0 0.831 0.169 1.131 0.469s0.469 0.707 0.469 1.131c0 0.424-0.169 0.831-0.469 1.131s-0.707 0.469-1.131 0.469h-1.6v1.6c0 0.424-0.169 0.831-0.469 1.131s-0.707 0.469-1.131 0.469-0.831-0.169-1.131-0.469c-0.3-0.3-0.469-0.707-0.469-1.131v-1.6h-1.6c-0.424 0-0.831-0.169-1.131-0.469s-0.469-0.707-0.469-1.131c0-0.424 0.169-0.831 0.469-1.131s0.707-0.469 1.131-0.469h1.6v-1.6c0-0.424 0.169-0.831 0.469-1.131s0.707-0.469 1.131-0.469zM19.199 3.2c0.353-0 0.696 0.117 0.976 0.332s0.481 0.517 0.571 0.858l1.886 7.13 5.366 3.094c0.243 0.14 0.445 0.342 0.586 0.586s0.214 0.519 0.214 0.8c0 0.281-0.074 0.557-0.214 0.8s-0.342 0.445-0.586 0.586l-5.366 3.096-1.888 7.128c-0.091 0.341-0.291 0.642-0.571 0.858s-0.623 0.332-0.975 0.332-0.696-0.117-0.975-0.332c-0.28-0.215-0.48-0.517-0.571-0.858l-1.886-7.13-5.366-3.094c-0.243-0.14-0.445-0.342-0.586-0.586s-0.214-0.519-0.214-0.8c0-0.281 0.074-0.557 0.214-0.8s0.342-0.445 0.586-0.586l5.366-3.096 1.888-7.128c0.090-0.341 0.291-0.643 0.57-0.858s0.622-0.332 0.975-0.332z"></path>
        </symbol>
        <symbol id="icon-linkedin" viewBox="0 0 32 32">
            <path d="M26.842 3.2h-21.683c-0.244-0.003-0.486 0.041-0.712 0.131s-0.433 0.224-0.608 0.394c-0.175 0.17-0.314 0.373-0.411 0.597s-0.148 0.465-0.151 0.708v21.939c0.003 0.244 0.055 0.484 0.151 0.708s0.236 0.427 0.411 0.597 0.381 0.304 0.608 0.394c0.226 0.090 0.468 0.135 0.712 0.131h21.683c0.244 0.003 0.486-0.041 0.712-0.131s0.433-0.224 0.608-0.394c0.175-0.17 0.314-0.373 0.411-0.597s0.148-0.465 0.151-0.708v-21.939c-0.003-0.244-0.055-0.484-0.151-0.708s-0.236-0.427-0.411-0.597c-0.175-0.17-0.381-0.304-0.608-0.394s-0.468-0.135-0.712-0.131zM10.996 24.627h-3.84v-11.52h3.84v11.52zM9.076 11.495c-0.53 0-1.037-0.21-1.412-0.585s-0.585-0.882-0.585-1.412c0-0.53 0.21-1.037 0.585-1.412s0.882-0.585 1.412-0.585c0.281-0.032 0.566-0.004 0.836 0.082s0.518 0.228 0.729 0.416c0.211 0.188 0.38 0.419 0.496 0.678s0.175 0.538 0.175 0.821c0 0.283-0.060 0.563-0.175 0.821s-0.285 0.489-0.496 0.678c-0.211 0.188-0.46 0.33-0.729 0.416s-0.554 0.114-0.836 0.082zM24.845 24.627h-3.84v-6.182c0-1.549-0.55-2.56-1.946-2.56-0.432 0.003-0.852 0.139-1.205 0.388s-0.62 0.601-0.767 1.007c-0.1 0.301-0.143 0.618-0.128 0.934v6.4h-3.84c0 0 0-10.47 0-11.52h3.84v1.626c0.349-0.605 0.856-1.104 1.468-1.442s1.303-0.504 2.001-0.478c2.56 0 4.416 1.651 4.416 5.197v6.63z"></path>
        </symbol>
        <symbol id="icon-twitter" viewBox="0 0 32 32">
            <path d="M28.8 8.064c-0.962 0.417-1.98 0.693-3.021 0.819 1.099-0.656 1.922-1.689 2.317-2.906-1.032 0.614-2.162 1.047-3.341 1.28-0.788-0.854-1.837-1.423-2.983-1.617s-2.324-0.002-3.348 0.546c-1.025 0.548-1.839 1.42-2.315 2.48s-0.586 2.248-0.314 3.378c-2.087-0.106-4.129-0.649-5.992-1.595s-3.507-2.274-4.824-3.896c-0.462 0.807-0.705 1.72-0.704 2.65-0.002 0.863 0.21 1.713 0.617 2.475s0.995 1.411 1.713 1.89c-0.835-0.023-1.651-0.247-2.381-0.653v0.064c0.006 1.209 0.43 2.38 1.2 3.313s1.838 1.571 3.024 1.807c-0.457 0.139-0.931 0.212-1.408 0.218-0.33-0.004-0.66-0.034-0.986-0.090 0.338 1.040 0.992 1.95 1.87 2.601s1.939 1.013 3.032 1.034c-1.847 1.453-4.127 2.246-6.477 2.253-0.428 0.001-0.855-0.024-1.28-0.077 2.399 1.549 5.195 2.371 8.051 2.368 1.971 0.020 3.926-0.352 5.751-1.096s3.484-1.843 4.88-3.235c1.395-1.392 2.5-3.048 3.248-4.871s1.126-3.777 1.11-5.748c0-0.218 0-0.448 0-0.678 1.004-0.749 1.871-1.667 2.56-2.714z"></path>
        </symbol>
        <symbol id="icon-instagram" viewBox="0 0 32 32">
            <path d="M22.835 7.629c-0.304 0-0.601 0.090-0.853 0.259s-0.449 0.409-0.566 0.689c-0.116 0.281-0.147 0.589-0.087 0.887s0.205 0.572 0.42 0.786c0.215 0.215 0.488 0.361 0.786 0.42s0.607 0.029 0.887-0.087c0.281-0.116 0.521-0.313 0.689-0.566s0.259-0.55 0.259-0.853c0-0.407-0.162-0.798-0.45-1.086s-0.679-0.45-1.086-0.45zM28.723 10.726c-0.025-1.062-0.224-2.113-0.589-3.11-0.326-0.854-0.832-1.627-1.485-2.266-0.634-0.656-1.409-1.159-2.266-1.472-0.995-0.376-2.047-0.58-3.11-0.602-1.357-0.077-1.792-0.077-5.274-0.077s-3.917 0-5.274 0.077c-1.063 0.022-2.115 0.225-3.11 0.602-0.855 0.316-1.63 0.819-2.266 1.472-0.656 0.634-1.159 1.409-1.472 2.266-0.376 0.995-0.58 2.047-0.602 3.11-0.077 1.357-0.077 1.792-0.077 5.274s0 3.917 0.077 5.274c0.022 1.063 0.225 2.115 0.602 3.11 0.313 0.857 0.816 1.632 1.472 2.266 0.636 0.653 1.41 1.156 2.266 1.472 0.995 0.376 2.047 0.58 3.11 0.602 1.357 0.077 1.792 0.077 5.274 0.077s3.917 0 5.274-0.077c1.063-0.022 2.115-0.226 3.11-0.602 0.857-0.313 1.632-0.816 2.266-1.472 0.656-0.637 1.163-1.41 1.485-2.266 0.365-0.998 0.564-2.048 0.589-3.11 0-1.357 0.077-1.792 0.077-5.274s0-3.917-0.077-5.274zM26.419 21.12c-0.009 0.813-0.156 1.618-0.435 2.381-0.204 0.557-0.533 1.060-0.96 1.472-0.415 0.423-0.918 0.751-1.472 0.96-0.763 0.279-1.568 0.426-2.381 0.435-1.28 0.064-1.754 0.077-5.12 0.077s-3.84 0-5.12-0.077c-0.844 0.016-1.684-0.114-2.483-0.384-0.53-0.22-1.009-0.547-1.408-0.96-0.425-0.411-0.749-0.915-0.947-1.472-0.313-0.774-0.486-1.598-0.512-2.432 0-1.28-0.077-1.754-0.077-5.12s0-3.84 0.077-5.12c0.006-0.831 0.157-1.654 0.448-2.432 0.225-0.54 0.571-1.022 1.011-1.408 0.389-0.44 0.87-0.79 1.408-1.024 0.78-0.282 1.603-0.429 2.432-0.435 1.28 0 1.754-0.077 5.12-0.077s3.84 0 5.12 0.077c0.813 0.009 1.618 0.156 2.381 0.435 0.582 0.216 1.104 0.567 1.523 1.024 0.419 0.393 0.747 0.874 0.96 1.408 0.285 0.779 0.432 1.602 0.435 2.432 0.064 1.28 0.077 1.754 0.077 5.12s-0.013 3.84-0.077 5.12zM16 9.434c-1.298 0.003-2.566 0.39-3.645 1.113s-1.918 1.749-2.413 2.95c-0.495 1.2-0.623 2.52-0.368 3.793s0.881 2.442 1.8 3.359c0.919 0.917 2.089 1.541 3.362 1.793s2.593 0.122 3.792-0.376c1.199-0.497 2.224-1.339 2.945-2.419s1.106-2.349 1.106-3.647c0.002-0.864-0.167-1.72-0.498-2.518s-0.815-1.523-1.426-2.134-1.338-1.094-2.136-1.422c-0.799-0.329-1.655-0.496-2.519-0.493zM16 20.262c-0.843 0-1.667-0.25-2.368-0.718s-1.247-1.134-1.57-1.913c-0.323-0.779-0.407-1.636-0.243-2.463s0.57-1.586 1.167-2.182c0.596-0.596 1.356-1.002 2.182-1.167s1.684-0.080 2.463 0.243c0.779 0.323 1.445 0.869 1.913 1.57s0.718 1.525 0.718 2.368c0 0.56-0.11 1.114-0.324 1.631s-0.528 0.987-0.924 1.383c-0.396 0.396-0.866 0.71-1.383 0.924s-1.071 0.324-1.631 0.324z"></path>
        </symbol>
        <symbol id="icon-facebook" viewBox="0 0 32 32">
            <path d="M19.993 7.45h2.406v-4.070c-1.165-0.121-2.336-0.181-3.507-0.179-3.482 0-5.862 2.125-5.862 6.016v3.354h-3.93v4.557h3.93v11.674h4.71v-11.674h3.917l0.589-4.557h-4.506v-2.906c0-1.344 0.358-2.214 2.253-2.214z"></path>
        </symbol>
        <symbol id="icon-close" viewBox="0 0 32 32">
            <path stroke-linejoin="round" stroke-linecap="round" stroke-miterlimit="4" stroke-width="1.8824" d="M23.529 8.471l-15.059 15.059M8.471 8.471l15.059 15.059"></path>
        </symbol>
        <symbol id="icon-menu" viewBox="0 0 32 32">
            <path stroke-linejoin="round" stroke-linecap="round" stroke-miterlimit="4" stroke-width="1.8824" d="M7.529 12.235h16.941"></path>
            <path stroke-linejoin="round" stroke-linecap="round" stroke-miterlimit="4" stroke-width="1.8824" d="M7.529 19.765h16.941"></path>
        </symbol>
        <symbol id="icon-logo" viewBox="0 0 32 32">
            <path fill="#6851ff" style="fill: var(--color1, #6851ff); stroke: var(--color1, #6851ff)" stroke="#6851ff" stroke-linejoin="round" stroke-linecap="round" stroke-miterlimit="4" stroke-width="3" d="M25.333 11.613l-7.11-5.53c-0.596-0.467-1.357-0.749-2.183-0.749s-1.587 0.282-2.191 0.755l0.008-0.006-7.112 5.53c-0.838 0.656-1.372 1.669-1.372 2.805 0 0.001 0 0.001 0 0.002v-0 9.6c0 1.473 1.194 2.667 2.667 2.667v0h16c1.472 0 2.666-1.194 2.666-2.666 0-0 0-0.001 0-0.001v0-9.6c0-0 0-0.001 0-0.001 0-1.137-0.534-2.15-1.365-2.8l-0.008-0.006z"></path>
            <path fill="none" stroke="#fff" style="stroke: var(--color2, #fff)" stroke-linejoin="round" stroke-linecap="round" stroke-miterlimit="4" stroke-width="3" d="M21.334 20c-2.947 1.777-7.723 1.777-10.667 0"></path>
        </symbol>
    </defs>
</svg>
